# xmcd
#
# Track frame offsets:
# 183
# 47058
# 68283
# 121683
# 158058
# 195320
# 205008
# 220733
# 252633
# 297483
# 309295
# 319720
#
# Disc length: 4576 seconds
#
#
# Revision: 1
# Processed by: cddbd v1.5.2PL0 Copyright (c) Steve Scherf et al.
# Submitted via: FreeRIP 2.96
#
DISCID=a111de0c
DTITLE=Richard Wagner - Der fliegende Holländer
DYEAR=1986
DGENRE=Classical
TTITLE0=Ouvertüre
TTITLE1=Mit Gewitter und Sturm
TTITLE2=Die Frist ist um
TTITLE3=Summ und brumm
TTITLE4=Johohoe! Traft ihr das Schiff - Ach, wo weilt sie
TTITLE5=Senta! Willst du mich verderben? - Das Schiffsvolk kommt mit leerem Magen
TTITLE6=Mögst du, mein Kind
TTITLE7=Wie aus der Ferne
TTITLE8=Steuermann, laß die Wacht
TTITLE9=Willst jenes Tages
TTITLE10=Verloren! Ach Verloren!
TTITLE11=Erfahre das Geschick - Du kennst mich nicht
EXTT0=
EXTT1=
EXTT2=
EXTT3=
EXTT4=
EXTT5=
EXTT6=
EXTT7=
EXTT8=
EXTT9=
EXTT10=
EXTT11=
PLAYORDER=
.
